<svg xmlns="http://www.w3.org/2000/svg" width="198.012" height="210.31" viewBox="0 0 198.012 210.31">
  <g id="_5e602c8803ca0e7b15c21a82_Creativity" data-name="5e602c8803ca0e7b15c21a82_Creativity" transform="matrix(0.951, -0.309, 0.309, 0.951, -29.977, 50.908)">
    <path id="Path_1" data-name="Path 1" d="M59.617,160.148c-1.85,1.886-3.823,3.646-5.85,5.339-2,1.671-3.925,3.476-6.041,5-.492.356-1.008-.408-.622-.813,1.818-1.907,3.9-3.568,5.844-5.343a75.975,75.975,0,0,1,6.044-5C59.481,158.972,60.012,159.746,59.617,160.148ZM42.566,133.6c-3.723,1.353-7.511,2.575-11.344,3.581-3.86,1.014-7.841,1.5-11.6,2.505a.5.5,0,0,0,.156.973c3.97.109,8.1-.908,11.923-1.9a65.247,65.247,0,0,0,11.349-4.089C43.654,134.382,43.195,133.368,42.566,133.6ZM45.95,108.49a81.575,81.575,0,0,0-8.133-4.024c-2.862-1.292-5.622-2.284-8.49-3.465-.487-.2-.877.611-.4.848,2.744,1.364,5.283,2.778,8.1,4.068a82.35,82.35,0,0,0,8.472,3.515.528.528,0,0,0,.445-.943Zm19.424,7.972c.185-.728-.861-1.037-1.208-.423A17.673,17.673,0,0,0,62.255,124c-.106,2.61.054,5.668,1.4,7.974.28.48,1.141.2,1.018-.33a26.261,26.261,0,0,1-.748-7.605A35.62,35.62,0,0,1,65.374,116.462Zm4.043-9.852a11.388,11.388,0,0,0-3.622,5.607.67.67,0,0,0,1.25.469,25.352,25.352,0,0,1,3.025-5.1C70.661,106.874,69.922,106.274,69.417,106.61ZM68.437,149.9a32.146,32.146,0,0,1-11.466-25.321,32.937,32.937,0,0,1,12.9-25.141.568.568,0,0,0-.659-.923,33.2,33.2,0,0,0-13.867,27.331C55.5,138.05,61.574,147.062,71.1,153.9c5.229,3.759,11.2,7.726,12.531,14.5.118.6,1.03.557.968-.08C83.743,159.463,74.5,154.975,68.437,149.9Zm74.872-34.986c-.268-.54-1.213-.129-.981.437a26.33,26.33,0,0,1-.407,21.048c-3.757,7.959-10.751,10.905-16.1,17.112-2.694,3.126-4.921,7.075-4.53,11.338a.509.509,0,0,0,1.016-.016c.26-5.084,3.014-8.868,6.429-12.184,5.388-5.237,11.183-8.449,14.534-15.649A25.719,25.719,0,0,0,143.309,114.91Zm5.31,46.292a70.272,70.272,0,0,0-8.256-4.512c-.581-.233-.824.58-.421.912a71.05,71.05,0,0,0,7.925,5.086c2.7,1.617,5.382,3.251,8.2,4.656a.648.648,0,0,0,.69-1.1c-2.619-1.829-5.383-3.429-8.136-5.046Zm29.347-32.864a87.681,87.681,0,0,0-9.708-.422c-3.28-.053-6.558-.082-9.838.007-.568.015-.615.971-.04,1.013,3.23.231,6.467.348,9.7.439a88.842,88.842,0,0,0,9.843.014.533.533,0,0,0,.038-1.051Zm-17.095-26.33a52.244,52.244,0,0,0,7.966-2.937,40.647,40.647,0,0,0,7.392-4.2c.581-.445-.084-1.3-.7-1.016-2.522,1.166-4.909,2.608-7.419,3.8-2.4,1.141-5.12,2.468-7.558,3.47a.474.474,0,0,0,.318.877Zm-36.951-25.9c-7.3-5.5-13.342-7.706-22.319-9.631-.518-.111-.364-.917.142-.9a33.011,33.011,0,0,1,9.848,2.066c-2.23-5.016-6.5-8.661-10.12-9.548-4.073,1.673-9.939,6.549-11.713,8.685,2.265,6.644-4.512,12.151-12.523,8.946A45.373,45.373,0,0,0,64.283,83.8c3.406,1.538,6.958,7.545,8.053,12.619,4.833-1.8,10.441-3.739,15.716-3.2s21.566,8.68,28.776,10.282c-3.527-5.591-.926-18.858,7.092-27.395Z" transform="translate(0 -20.433)" fill="orange" fill-rule="evenodd"/>
    <path id="Path_2" data-name="Path 2" d="M100.307,150.148c5.608,8.1,2.645,20.22,9.075,28.039,7.376,8.971,22.571,5.341,26.906-3.116s1.452-14.334,5.5-28.128C129.016,154.507,108.808,153.083,100.307,150.148Zm33.46,20.233c-2.329,2.969-6.1,4.972-9.618,6.138a21.52,21.52,0,0,1-11.314.861.481.481,0,0,1,.127-.942,27.335,27.335,0,0,0,10.78-1.485,27.924,27.924,0,0,0,9.406-5.374C133.637,169.18,134.089,169.972,133.768,170.381Zm1.494-7.785a18.32,18.32,0,0,1-10.16,6.544c-2.813.787-11.246,2.017-14.233,1.181-.48-.135-.431-.912.018-.908a61.621,61.621,0,0,0,13.463-1.756,22.43,22.43,0,0,0,10.062-5.724c.425-.436,1.214.164.849.664Zm.02-8.275c.442-.276,1.087.282.669.728-2.768,2.957-8.5,5.414-12.4,6.441a32.42,32.42,0,0,1-13.988.723c-.626-.11-.431-1,.178-.952a38.652,38.652,0,0,0,13.437-1.2c5.177-1.454,7.94-3.148,12.1-5.744Zm-1.735-58.7c-3.53-1.493-5.1-.172-6.042,3.229a87.936,87.936,0,0,0-3.085,19.656,43.554,43.554,0,0,1-11.56.482c-.775-3.471-3.4-14.6-5.352-17.378a3.35,3.35,0,0,0-5.06-.749c-1.876,1.41-4.983,7.052-6.064,9.4-1.538,3.329-.655,5.081,2.554,6.531A43,43,0,0,0,111.6,120.3c.928,4.237,1.671,8.443,2.21,12.752.578,4.606.935,9.412,1.3,14.054a.466.466,0,0,0,.93-.023,94.247,94.247,0,0,0-.795-14.37c-.515-4.108-1.209-8.207-2.068-12.257a45.3,45.3,0,0,0,11.19-.442,87.7,87.7,0,0,0,2.755,24.484c.221.841,1.5.462,1.292-.38a91.01,91.01,0,0,1-2.612-24.354c4.737-.944,13.186-3.788,16.368-7.73,2.871-3.559,1.34-7.821-1.362-11.012a19.828,19.828,0,0,0-7.259-5.4Zm-32.71,20.466c-3.66-1.493-4.846-2.015-2.78-6.008,1.1-2.127,3.206-6.074,4.84-7.69.9-.893,2.131-1.353,3.1-.3,1.723,1.865,4.634,13.923,5.275,16.714a41.733,41.733,0,0,1-10.439-2.714Zm40.251-5.044c-2.655,3.575-10.841,6.259-15.227,7.187.257-5.455,1.381-14.653,3.329-20,.615-1.682,1.508-2,3.2-1.446a17.418,17.418,0,0,1,9.255,8.114,5.869,5.869,0,0,1-.557,6.148Zm-37.764-80.69c-1.788.664-2.036,2.693-1.619,4.392a2.064,2.064,0,0,0-1.7.615c-.832-1.692-2.758-3.161-4.619-2.1-1.567.89-1.638,3.252-1.2,4.786-.738.3-1.644.453-2.427.758a.444.444,0,0,0,.258.838c.776-.143,1.729-.431,2.522-.645.828,1.8,2.515,3.521,4.648,2.435s1.9-3.185,1.225-5.095a1.5,1.5,0,0,1,1.62-.585c.64,1.626,2.178,3.81,4.193,2.835s1.645-3.63,1.077-5.341S105.3,29.619,103.325,30.353ZM98.808,40.519c-1.745.923-3.05-.91-3.547-2.329-.412-1.179-.61-3.277.579-4.057,1.556-1.021,3.055.97,3.541,2.241C99.923,37.793,100.425,39.666,98.808,40.519Zm7.025-2.825c-1.674.7-2.594-1.281-3.087-2.522-.512-1.288-.659-3.394.906-3.92s2.49,1.408,2.855,2.584C106.886,35.062,107.139,37.146,105.833,37.694Zm-8.14.558c.228.5.2.868-.091,1.107-.388.325-.776.062-1.021-.358-.17-.292-.354-.97.1-1.251C97.064,37.514,97.54,37.917,97.693,38.252Zm7.444-2.571a1,1,0,0,1-.246,1.006c-.394.26-.826-.188-.943-.567-.144-.461-.118-.963.185-1.164.478-.313.9.336,1.005.725Zm-1.964,4.692c.252-.237.34-.41.116-.7a7.259,7.259,0,0,0-1.442-1.224c-.412-.289.035-.969.468-.738a6.3,6.3,0,0,1,1.335.984c1.069,1.014.929,1.94-.255,2.774a3,3,0,0,1-1.641.629.481.481,0,0,1-.188-.854C101.944,40.941,102.636,40.877,103.173,40.373Zm-3.4,3.845a4.073,4.073,0,0,0,2.382-.5c.569-.316.857.4.448.72a5.021,5.021,0,0,1-2.885.726,4.727,4.727,0,0,1-2.778-.928c-.381-.318-.017-1.03.455-.781a4.849,4.849,0,0,0,2.378.759Zm-2.053,3.854c2.6.27,5.559.568,7.751-1.151,2.68-2.1,1.653-4.827.693-7.022-.261-.6.565-.834.8-.364,1.358,2.75,1.922,5.77-.71,7.965-2.434,2.03-5.7,1.854-8.649,1.432-.486-.07-.367-.911.119-.861Zm24.56-11.782c2.409-1.727,4.934-3.332,6.359-6.034,1.558-2.953,1.675-6.387,1.768-9.653a4.224,4.224,0,0,1-4.614-3.712.449.449,0,0,1,.872-.2,3.31,3.31,0,0,0,3.439,2.875c1-.058,1.366.036,1.343.861-.1,3.489-.242,7.1-1.875,10.267-1.45,2.815-4.128,4.745-6.774,6.351-.445.271-.941-.458-.519-.76Zm8.951-29.663a.456.456,0,0,1,.595-.677,8.327,8.327,0,0,1,2.528,3.377,8.268,8.268,0,0,1,.665,4.2.533.533,0,0,1-1.021-.07,10.887,10.887,0,0,0-.629-3.72,9.664,9.664,0,0,0-2.138-3.115Zm5.032,6.905a12.058,12.058,0,0,0,.948-3.957,11.776,11.776,0,0,0-.58-4.031c-.143-.507.595-.761.854-.311a9.773,9.773,0,0,1,.787,4.382,9.554,9.554,0,0,1-1.073,4.339.52.52,0,0,1-.936-.422Zm1.516,1.863a9.545,9.545,0,0,0,2.173-2.437,11.908,11.908,0,0,0,1.276-3.082.452.452,0,1,1,.89.158,8.952,8.952,0,0,1-1.272,3.445,10.651,10.651,0,0,1-2.372,2.744c.188,2.85.292,5.709.42,8.562.434,9.671-.145,13.259-8.48,19.721-.554.431-1.169-.466-.619-.893,8.334-6.476,8.387-9.877,8-19.368-.109-2.7-.25-5.4-.3-8.106a1.03,1.03,0,0,1,.285-.743ZM88.213,47.2c-4.721,5.742-7.44,11.391-7.091,18.984a.465.465,0,0,1-.923.113c-.984-7.157,2.574-14.485,7.174-19.747C87.826,46.033,88.651,46.665,88.213,47.2Zm.466,28.564a40.013,40.013,0,0,1-10.758,3.409c-15.9,2.348-11.19-14.981-6.239-22.946A84.568,84.568,0,0,1,80.6,44.353,18.606,18.606,0,0,1,80.265,32.4c.2-.637,1.216-.833.965.33a19.658,19.658,0,0,0,.253,11.024,1.444,1.444,0,0,1-.278,1.561A55.473,55.473,0,0,0,71.117,59.515C67.3,67.507,64.943,80.185,78.23,78c3.726-.611,6.539-1.969,10.018-3.028.456-.138.906.524.432.783ZM172.627,90.5c.933,2.052,4.192,8.438,4.2,10.294.01,2.494-2.385,3.93-4.376,2-2.418-2.348-3.465-4.956-6.562-7.484-1.919-1.566-4.451-2.723-5.809-4.805a5.414,5.414,0,0,1-.564-5.153c.228-.562,1.169-.282,1.022.308a5.2,5.2,0,0,0,.692,4.323c1.08,1.491,3.814,2.9,5.407,4.21,3.208,2.626,4.066,4.614,6.512,7.368,1.206,1.358,2.379.795,2.384-.779,0-1.411-3.206-7.481-4.188-9.572a34.6,34.6,0,0,1-2.522-5.813c-.148-.615.744-1.374,1.1-.423.765,2.069,1.88,3.708,2.708,5.529Zm25.831-51.4c-.284,3.17-3.571,15.749-4.325,18.134-1.4,4.424-5.642,3.978-9.065,2.358-.6-.286-.21-1.239.415-1.079,2.571.656,6.195,1.74,7.233-1.7,1.049-3.481,4.352-14.641,4.434-17.74.025-.946-.573-1.292-1.3-.725-2.461,1.907-5.839,7.892-7.51,10.668-.264.439-1.072.185-.881-.338.952-2.6,5.48-10.093,7.9-11.549a2.006,2.006,0,0,1,3.1,1.972Zm-40.51,44.774a85.209,85.209,0,0,0,.579-9.781,159.932,159.932,0,0,0,6.712-19.95,48.061,48.061,0,0,1,8.135,3.358c-.021,5.252-1.173,23.565-2.138,25.175C167.969,84.4,160.085,84.067,157.948,83.866Zm27.775-36.455c-.066,4.073-3,11.3-3.937,13.328-2.693-2.022-11.551-6.384-16.794-8.079a.671.671,0,0,0-.843.431c-1.4,5.106-2.866,10.212-4.7,15.181-3.185,8.606-8.037,16.471-22.124,13.6-7.936-15.423,20.061-45.176,24.238-46.048,5.2-1.086,20.963,8.921,24.166,11.592Zm-88.7,6.275c-.528-1.822-4.06-6.781-5.275-8.081a2,2,0,0,0,.852-1.723c-.047-.5-.826-.653-.926-.1a1.559,1.559,0,0,1-2.461,1.15,3.993,3.993,0,0,1-1.476-4.4,1.26,1.26,0,0,1,1.855-.447.5.5,0,0,0,.615-.062A10.22,10.22,0,0,0,92.2,32.037a24.633,24.633,0,0,0,9.44-2.591c3.535-1.788,6.17-3.786,5.137-8.832-.615-3.014-3.085-6.24-7-5.323-4.932,1.156-13.771,9.271-14.189,14.165-1.671.375-3.061,1.179-3.366,2.98-.548,3.235,1.954,7.02,4.36,8.93-.074,2.361,1.491,5.363,4.322,4.694a66.471,66.471,0,0,1,5.337,8.1c.274.5.911-.01.778-.47Zm-3.708-32a14.551,14.551,0,0,1,5.5-3.981c1.8-.762,4.824-.857,5.057,1.651a.54.54,0,0,1-1,.266c-.842-1.881-2.953-1.217-4.408-.508a19.486,19.486,0,0,0-4.523,3.2.443.443,0,0,1-.619-.632Zm33.214-8a3.364,3.364,0,0,1,5.3-1.543,3.272,3.272,0,0,1,.977,3.884.511.511,0,0,1-.979-.25,2.383,2.383,0,1,0-4.434-1.744.467.467,0,1,1-.867-.347Z" transform="translate(-18.352)" fill-rule="evenodd"/>
  </g>
</svg>
